<?xml version="1.0" standalone="no"?><!DOCTYPE svg PUBLIC "-//W3C//DTD SVG 1.1//EN" "http://www.w3.org/Graphics/SVG/1.1/DTD/svg11.dtd"><svg t="1650163375519" class="icon" viewBox="0 0 1024 1024" version="1.1" xmlns="http://www.w3.org/2000/svg" p-id="4438" xmlns:xlink="http://www.w3.org/1999/xlink" width="200" height="200"><defs><style type="text/css"></style></defs><path d="M245.324385 913.116229a110.883771 110.883771 0 1 1-110.883771-110.883771A110.883771 110.883771 0 0 1 245.324385 913.116229zM155.901989 1.00779A118.484675 118.484675 0 0 0 61.114249 30.517181 115.802003 115.802003 0 0 0 21.768395 117.256905a117.590451 117.590451 0 0 0 104.177092 114.907779c327.733081 41.581414 603.601173 337.569545 641.158578 688.552449a114.460667 114.460667 0 0 0 114.907779 102.835755 118.037563 118.037563 0 0 0 89.422396-38.898742 113.119331 113.119331 0 0 0 28.615167-89.422396C949.525753 440.965978 586.470826 56.449676 155.901989 1.00779z m7.600904 381.833631A110.883771 110.883771 0 0 0 66.479593 403.408572a117.143339 117.143339 0 0 0-44.711198 92.55218 114.460667 114.460667 0 0 0 89.422396 112.225107c134.133594 32.192063 250.382709 163.642985 279.8921 318.790841a116.249115 116.249115 0 0 0 112.225106 93.446404 116.696227 116.696227 0 0 0 89.422396-42.028526 112.672219 112.672219 0 0 0 24.591159-93.446404C571.71613 643.060593 383.929099 436.494859 161.267333 383.735645z" fill="#1296db" p-id="4439"></path></svg>